<?xml version="1.0" encoding="utf-8" ?>
<!DOCTYPE svg PUBLIC "-//W3C//DTD SVG 1.1//EN" "http://www.w3.org/Graphics/SVG/1.1/DTD/svg11.dtd">
<svg height="1078" version="1.1" width="1866" xmlns="http://www.w3.org/2000/svg">
<text font-family="Dialog" font-size="12" x="730" y="315">
Persoana</text>
<ellipse cx="757" cy="263" fill="#000000" rx="8.0" ry="7.5" stroke="#000000" stroke-width="1"/>
<ellipse cx="757" cy="263" fill="#ffffff" rx="7.0" ry="6.5" stroke="#ffffff" stroke-width="1"/>
<line fill="#000000" stroke="#000000" stroke-width="1" x1="757" x2="757" y1="271" y2="286"/>
<line fill="#000000" stroke="#000000" stroke-width="1" x1="747" x2="767" y1="276" y2="276"/>
<line fill="#000000" stroke="#000000" stroke-width="1" x1="757" x2="752" y1="286" y2="301"/>
<line fill="#000000" stroke="#000000" stroke-width="1" x1="757" x2="762" y1="286" y2="301"/>
<text font-family="Dialog" font-size="12" x="522" y="299">
User obisnuit</text>
<ellipse cx="559" cy="247" fill="#000000" rx="8.0" ry="7.5" stroke="#000000" stroke-width="1"/>
<ellipse cx="559" cy="247" fill="#ffffff" rx="7.0" ry="6.5" stroke="#ffffff" stroke-width="1"/>
<line fill="#000000" stroke="#000000" stroke-width="1" x1="559" x2="559" y1="255" y2="270"/>
<line fill="#000000" stroke="#000000" stroke-width="1" x1="549" x2="569" y1="260" y2="260"/>
<line fill="#000000" stroke="#000000" stroke-width="1" x1="559" x2="554" y1="270" y2="285"/>
<line fill="#000000" stroke="#000000" stroke-width="1" x1="559" x2="564" y1="270" y2="285"/>
<text font-family="Dialog" font-size="12" x="458" y="515">
Autoritate Cric</text>
<ellipse cx="496" cy="463" fill="#000000" rx="8.0" ry="7.5" stroke="#000000" stroke-width="1"/>
<ellipse cx="496" cy="463" fill="#ffffff" rx="7.0" ry="6.5" stroke="#ffffff" stroke-width="1"/>
<line fill="#000000" stroke="#000000" stroke-width="1" x1="496" x2="496" y1="471" y2="486"/>
<line fill="#000000" stroke="#000000" stroke-width="1" x1="486" x2="506" y1="476" y2="476"/>
<line fill="#000000" stroke="#000000" stroke-width="1" x1="496" x2="491" y1="486" y2="501"/>
<line fill="#000000" stroke="#000000" stroke-width="1" x1="496" x2="501" y1="486" y2="501"/>
<polyline fill="none" points="503,458 752,325" stroke="#000000" stroke-width="1"/>
<polygon fill="#ffffff" points="752,325 744,336 738,324" stroke="#ffffff" stroke-width="1"/>
<polygon fill="none" points="752,325 744,336 738,324" stroke="#000000" stroke-width="1"/>
<polyline fill="none" points="569,260 747,276" stroke="#000000" stroke-width="1"/>
<polygon fill="#ffffff" points="747,276 734,281 735,267" stroke="#ffffff" stroke-width="1"/>
<polygon fill="none" points="747,276 734,281 735,267" stroke="#000000" stroke-width="1"/>
<ellipse cx="651" cy="152" fill="#000000" rx="77.0" ry="26.0" stroke="#000000" stroke-width="1"/>
<ellipse cx="651" cy="152" fill="#ffffff" rx="76.0" ry="25.0" stroke="#ffffff" stroke-width="1"/>
<text font-family="Dialog" font-size="12" x="588" y="153">
Vizionare pagina home</text>
<polyline fill="none" points="751,256 674,176" stroke="#000000" stroke-width="1"/>
<ellipse cx="681" cy="49" fill="#000000" rx="123.0" ry="35.0" stroke="#000000" stroke-width="1"/>
<ellipse cx="681" cy="49" fill="#ffffff" rx="122.0" ry="34.0" stroke="#ffffff" stroke-width="1"/>
<text font-family="Dialog" font-size="12" x="570" y="50">
Vizualizare poze de la misiuni de salvare</text>
<ellipse cx="938" cy="70" fill="#000000" rx="108.0" ry="32.0" stroke="#000000" stroke-width="1"/>
<ellipse cx="938" cy="70" fill="#ffffff" rx="107.0" ry="31.0" stroke="#ffffff" stroke-width="1"/>
<text font-family="Dialog" font-size="12" x="849" y="71">
Apasare buton "Fushion Tables"</text>
<ellipse cx="1157" cy="47" fill="#000000" rx="71.0" ry="25.0" stroke="#000000" stroke-width="1"/>
<ellipse cx="1157" cy="47" fill="#ffffff" rx="70.0" ry="24.0" stroke="#ffffff" stroke-width="1"/>
<text font-family="Dialog" font-size="12" x="1100" y="48">
Vizionare date tabele</text>
<polyline fill="none" points="1038,57 1087,52" stroke="#000000" stroke-width="1"/>
<polyline fill="none" points="762,256 908,100" stroke="#000000" stroke-width="1"/>
<ellipse cx="721" cy="574" fill="#000000" rx="107.0" ry="32.0" stroke="#000000" stroke-width="1"/>
<ellipse cx="721" cy="574" fill="#ffffff" rx="106.0" ry="31.0" stroke="#ffffff" stroke-width="1"/>
<text font-family="Dialog" font-size="12" x="627" y="575">
Creare cont pe baza unui cod CriC</text>
<ellipse cx="378" cy="726" fill="#000000" rx="108.0" ry="32.0" stroke="#000000" stroke-width="1"/>
<ellipse cx="378" cy="726" fill="#ffffff" rx="107.0" ry="31.0" stroke="#ffffff" stroke-width="1"/>
<text font-family="Dialog" font-size="12" x="289" y="727">
Apasare buton "Fushion Tables"</text>
<polyline fill="none" points="491,525 395,694" stroke="#000000" stroke-width="1"/>
<polyline fill="none" points="501,525 635,554" stroke="#000000" stroke-width="1"/>
<ellipse cx="119" cy="831" fill="#000000" rx="73.0" ry="25.0" stroke="#000000" stroke-width="1"/>
<ellipse cx="119" cy="831" fill="#ffffff" rx="72.0" ry="24.0" stroke="#ffffff" stroke-width="1"/>
<text font-family="Dialog" font-size="12" x="61" y="832">
Selectare "Add event"</text>
<polyline fill="none" points="313,751 165,811" stroke="#000000" stroke-width="1"/>
<ellipse cx="108" cy="938" fill="#000000" rx="86.0" ry="28.0" stroke="#000000" stroke-width="1"/>
<ellipse cx="108" cy="938" fill="#ffffff" rx="85.0" ry="27.0" stroke="#ffffff" stroke-width="1"/>
<text font-family="Dialog" font-size="12" x="35" y="939">
Selectare tip de eveniment</text>
<ellipse cx="323" cy="901" fill="#000000" rx="61.0" ry="23.0" stroke="#000000" stroke-width="1"/>
<ellipse cx="323" cy="901" fill="#ffffff" rx="60.0" ry="22.0" stroke="#ffffff" stroke-width="1"/>
<text font-family="Dialog" font-size="12" x="277" y="902">
Completare date</text>
<ellipse cx="281" cy="1035" fill="#000000" rx="91.0" ry="29.0" stroke="#000000" stroke-width="1"/>
<ellipse cx="281" cy="1035" fill="#ffffff" rx="90.0" ry="28.0" stroke="#ffffff" stroke-width="1"/>
<text font-family="Dialog" font-size="12" x="203" y="1036">
Submit adaugare eveniment</text>
<polyline fill="none" points="116,855 110,910" stroke="#000000" stroke-width="1"/>
<ellipse cx="165" cy="475" fill="#000000" rx="55.0" ry="21.0" stroke="#000000" stroke-width="1"/>
<ellipse cx="165" cy="475" fill="#ffffff" rx="54.0" ry="20.0" stroke="#ffffff" stroke-width="1"/>
<text font-family="Dialog" font-size="12" x="149" y="476">
Login</text>
<line fill="#000000" stroke="#000000" stroke-width="1" x1="122" x2="122" y1="806" y2="802"/>
<line fill="#000000" stroke="#000000" stroke-width="1" x1="123" x2="123" y1="797" y2="792"/>
<line fill="#000000" stroke="#000000" stroke-width="1" x1="124" x2="125" y1="787" y2="782"/>
<line fill="#000000" stroke="#000000" stroke-width="1" x1="125" x2="126" y1="777" y2="772"/>
<line fill="#000000" stroke="#000000" stroke-width="1" x1="127" x2="127" y1="767" y2="762"/>
<line fill="#000000" stroke="#000000" stroke-width="1" x1="128" x2="129" y1="757" y2="752"/>
<line fill="#000000" stroke="#000000" stroke-width="1" x1="129" x2="130" y1="747" y2="742"/>
<line fill="#000000" stroke="#000000" stroke-width="1" x1="130" x2="131" y1="737" y2="732"/>
<line fill="#000000" stroke="#000000" stroke-width="1" x1="132" x2="132" y1="727" y2="722"/>
<line fill="#000000" stroke="#000000" stroke-width="1" x1="133" x2="134" y1="717" y2="712"/>
<line fill="#000000" stroke="#000000" stroke-width="1" x1="134" x2="135" y1="707" y2="702"/>
<line fill="#000000" stroke="#000000" stroke-width="1" x1="136" x2="136" y1="697" y2="692"/>
<line fill="#000000" stroke="#000000" stroke-width="1" x1="137" x2="137" y1="687" y2="682"/>
<line fill="#000000" stroke="#000000" stroke-width="1" x1="138" x2="139" y1="677" y2="672"/>
<line fill="#000000" stroke="#000000" stroke-width="1" x1="139" x2="140" y1="667" y2="662"/>
<line fill="#000000" stroke="#000000" stroke-width="1" x1="141" x2="141" y1="657" y2="652"/>
<line fill="#000000" stroke="#000000" stroke-width="1" x1="142" x2="143" y1="648" y2="643"/>
<line fill="#000000" stroke="#000000" stroke-width="1" x1="143" x2="144" y1="638" y2="633"/>
<line fill="#000000" stroke="#000000" stroke-width="1" x1="145" x2="145" y1="628" y2="623"/>
<line fill="#000000" stroke="#000000" stroke-width="1" x1="146" x2="146" y1="618" y2="613"/>
<line fill="#000000" stroke="#000000" stroke-width="1" x1="147" x2="148" y1="608" y2="603"/>
<line fill="#000000" stroke="#000000" stroke-width="1" x1="148" x2="149" y1="598" y2="593"/>
<line fill="#000000" stroke="#000000" stroke-width="1" x1="150" x2="150" y1="588" y2="583"/>
<line fill="#000000" stroke="#000000" stroke-width="1" x1="151" x2="152" y1="578" y2="573"/>
<line fill="#000000" stroke="#000000" stroke-width="1" x1="152" x2="153" y1="568" y2="563"/>
<line fill="#000000" stroke="#000000" stroke-width="1" x1="153" x2="154" y1="558" y2="553"/>
<line fill="#000000" stroke="#000000" stroke-width="1" x1="155" x2="155" y1="548" y2="543"/>
<line fill="#000000" stroke="#000000" stroke-width="1" x1="156" x2="157" y1="538" y2="533"/>
<line fill="#000000" stroke="#000000" stroke-width="1" x1="157" x2="158" y1="528" y2="523"/>
<line fill="#000000" stroke="#000000" stroke-width="1" x1="159" x2="159" y1="518" y2="513"/>
<line fill="#000000" stroke="#000000" stroke-width="1" x1="160" x2="160" y1="508" y2="503"/>
<line fill="#000000" stroke="#000000" stroke-width="1" x1="161" x2="162" y1="498" y2="495"/>
<line fill="#000000" stroke="#000000" stroke-width="1" x1="167" x2="162" y1="507" y2="495"/>
<line fill="#000000" stroke="#000000" stroke-width="1" x1="153" x2="162" y1="506" y2="495"/>
<text font-family="Dialog" font-size="12" x="72" y="652">
&lt;&lt;include&gt;&gt;</text>
<ellipse cx="1006" cy="161" fill="#000000" rx="80.0" ry="27.0" stroke="#000000" stroke-width="1"/>
<ellipse cx="1006" cy="161" fill="#ffffff" rx="79.0" ry="26.0" stroke="#ffffff" stroke-width="1"/>
<text font-family="Dialog" font-size="12" x="939" y="162">
Apasare buton "Contact"</text>
<ellipse cx="1335" cy="73" fill="#000000" rx="81.0" ry="27.0" stroke="#000000" stroke-width="1"/>
<ellipse cx="1335" cy="73" fill="#ffffff" rx="80.0" ry="26.0" stroke="#ffffff" stroke-width="1"/>
<text font-family="Dialog" font-size="12" x="1268" y="74">
Contactare sediu central</text>
<ellipse cx="1193" cy="240" fill="#000000" rx="75.0" ry="26.0" stroke="#000000" stroke-width="1"/>
<ellipse cx="1193" cy="240" fill="#ffffff" rx="74.0" ry="25.0" stroke="#ffffff" stroke-width="1"/>
<text font-family="Dialog" font-size="12" x="1132" y="241">
Interactionare cu harta</text>
<ellipse cx="1391" cy="186" fill="#000000" rx="89.0" ry="28.0" stroke="#000000" stroke-width="1"/>
<ellipse cx="1391" cy="186" fill="#ffffff" rx="88.0" ry="27.0" stroke="#ffffff" stroke-width="1"/>
<text font-family="Dialog" font-size="12" x="1316" y="187">
Contactare sediu secundar</text>
<polyline fill="none" points="765,260 955,181" stroke="#000000" stroke-width="1"/>
<ellipse cx="639" cy="675" fill="#000000" rx="57.0" ry="21.0" stroke="#000000" stroke-width="1"/>
<ellipse cx="639" cy="675" fill="#ffffff" rx="56.0" ry="20.0" stroke="#ffffff" stroke-width="1"/>
<text font-family="Dialog" font-size="12" x="598" y="676">
Accesare profil</text>
<ellipse cx="760" cy="881" fill="#000000" rx="82.0" ry="27.0" stroke="#000000" stroke-width="1"/>
<ellipse cx="760" cy="881" fill="#ffffff" rx="81.0" ry="26.0" stroke="#ffffff" stroke-width="1"/>
<text font-family="Dialog" font-size="12" x="692" y="882">
Schimbare poza de profil</text>
<ellipse cx="613" cy="899" fill="#000000" rx="55.0" ry="21.0" stroke="#000000" stroke-width="1"/>
<ellipse cx="613" cy="899" fill="#ffffff" rx="54.0" ry="20.0" stroke="#ffffff" stroke-width="1"/>
<text font-family="Dialog" font-size="12" x="580" y="900">
Editare date</text>
<ellipse cx="912" cy="745" fill="#000000" rx="82.0" ry="27.0" stroke="#000000" stroke-width="1"/>
<ellipse cx="912" cy="745" fill="#ffffff" rx="81.0" ry="26.0" stroke="#ffffff" stroke-width="1"/>
<text font-family="Dialog" font-size="12" x="844" y="746">
Vizionare date personale</text>
<ellipse cx="905" cy="829" fill="#000000" rx="99.0" ry="31.0" stroke="#000000" stroke-width="1"/>
<ellipse cx="905" cy="829" fill="#ffffff" rx="98.0" ry="30.0" stroke="#ffffff" stroke-width="1"/>
<text font-family="Dialog" font-size="12" x="819" y="830">
Vizionare evenimente introduse</text>
<polyline fill="none" points="501,525 620,655" stroke="#000000" stroke-width="1"/>
<polyline fill="none" points="685,686 847,728" stroke="#000000" stroke-width="1"/>
<polyline fill="none" points="669,692 858,801" stroke="#000000" stroke-width="1"/>
<polyline fill="none" points="651,695 744,854" stroke="#000000" stroke-width="1"/>
<polyline fill="none" points="636,695 615,878" stroke="#000000" stroke-width="1"/>
<line fill="#000000" stroke="#000000" stroke-width="1" x1="601" x2="597" y1="659" y2="658"/>
<line fill="#000000" stroke="#000000" stroke-width="1" x1="592" x2="588" y1="656" y2="654"/>
<line fill="#000000" stroke="#000000" stroke-width="1" x1="583" x2="578" y1="652" y2="650"/>
<line fill="#000000" stroke="#000000" stroke-width="1" x1="574" x2="569" y1="648" y2="646"/>
<line fill="#000000" stroke="#000000" stroke-width="1" x1="565" x2="560" y1="644" y2="642"/>
<line fill="#000000" stroke="#000000" stroke-width="1" x1="555" x2="551" y1="640" y2="638"/>
<line fill="#000000" stroke="#000000" stroke-width="1" x1="546" x2="542" y1="636" y2="634"/>
<line fill="#000000" stroke="#000000" stroke-width="1" x1="537" x2="532" y1="632" y2="630"/>
<line fill="#000000" stroke="#000000" stroke-width="1" x1="528" x2="523" y1="628" y2="626"/>
<line fill="#000000" stroke="#000000" stroke-width="1" x1="519" x2="514" y1="624" y2="623"/>
<line fill="#000000" stroke="#000000" stroke-width="1" x1="509" x2="505" y1="621" y2="619"/>
<line fill="#000000" stroke="#000000" stroke-width="1" x1="500" x2="496" y1="617" y2="615"/>
<line fill="#000000" stroke="#000000" stroke-width="1" x1="491" x2="486" y1="613" y2="611"/>
<line fill="#000000" stroke="#000000" stroke-width="1" x1="482" x2="477" y1="609" y2="607"/>
<line fill="#000000" stroke="#000000" stroke-width="1" x1="472" x2="468" y1="605" y2="603"/>
<line fill="#000000" stroke="#000000" stroke-width="1" x1="463" x2="459" y1="601" y2="599"/>
<line fill="#000000" stroke="#000000" stroke-width="1" x1="454" x2="449" y1="597" y2="595"/>
<line fill="#000000" stroke="#000000" stroke-width="1" x1="445" x2="440" y1="593" y2="591"/>
<line fill="#000000" stroke="#000000" stroke-width="1" x1="436" x2="431" y1="589" y2="587"/>
<line fill="#000000" stroke="#000000" stroke-width="1" x1="426" x2="422" y1="586" y2="584"/>
<line fill="#000000" stroke="#000000" stroke-width="1" x1="417" x2="413" y1="582" y2="580"/>
<line fill="#000000" stroke="#000000" stroke-width="1" x1="408" x2="403" y1="578" y2="576"/>
<line fill="#000000" stroke="#000000" stroke-width="1" x1="399" x2="394" y1="574" y2="572"/>
<line fill="#000000" stroke="#000000" stroke-width="1" x1="390" x2="385" y1="570" y2="568"/>
<line fill="#000000" stroke="#000000" stroke-width="1" x1="380" x2="376" y1="566" y2="564"/>
<line fill="#000000" stroke="#000000" stroke-width="1" x1="371" x2="366" y1="562" y2="560"/>
<line fill="#000000" stroke="#000000" stroke-width="1" x1="362" x2="357" y1="558" y2="556"/>
<line fill="#000000" stroke="#000000" stroke-width="1" x1="353" x2="348" y1="554" y2="552"/>
<line fill="#000000" stroke="#000000" stroke-width="1" x1="343" x2="339" y1="550" y2="549"/>
<line fill="#000000" stroke="#000000" stroke-width="1" x1="334" x2="330" y1="547" y2="545"/>
<line fill="#000000" stroke="#000000" stroke-width="1" x1="325" x2="320" y1="543" y2="541"/>
<line fill="#000000" stroke="#000000" stroke-width="1" x1="316" x2="311" y1="539" y2="537"/>
<line fill="#000000" stroke="#000000" stroke-width="1" x1="307" x2="302" y1="535" y2="533"/>
<line fill="#000000" stroke="#000000" stroke-width="1" x1="297" x2="293" y1="531" y2="529"/>
<line fill="#000000" stroke="#000000" stroke-width="1" x1="288" x2="284" y1="527" y2="525"/>
<line fill="#000000" stroke="#000000" stroke-width="1" x1="279" x2="274" y1="523" y2="521"/>
<line fill="#000000" stroke="#000000" stroke-width="1" x1="270" x2="265" y1="519" y2="517"/>
<line fill="#000000" stroke="#000000" stroke-width="1" x1="260" x2="256" y1="515" y2="513"/>
<line fill="#000000" stroke="#000000" stroke-width="1" x1="251" x2="247" y1="512" y2="510"/>
<line fill="#000000" stroke="#000000" stroke-width="1" x1="242" x2="237" y1="508" y2="506"/>
<line fill="#000000" stroke="#000000" stroke-width="1" x1="233" x2="228" y1="504" y2="502"/>
<line fill="#000000" stroke="#000000" stroke-width="1" x1="224" x2="219" y1="500" y2="498"/>
<line fill="#000000" stroke="#000000" stroke-width="1" x1="214" x2="210" y1="496" y2="494"/>
<line fill="#000000" stroke="#000000" stroke-width="1" x1="205" x2="201" y1="492" y2="490"/>
<line fill="#000000" stroke="#000000" stroke-width="1" x1="214" x2="201" y1="488" y2="490"/>
<line fill="#000000" stroke="#000000" stroke-width="1" x1="209" x2="201" y1="501" y2="490"/>
<text font-family="Dialog" font-size="12" x="376" y="558">
&lt;&lt;include&gt;&gt;</text>
<ellipse cx="1005" cy="279" fill="#000000" rx="71.0" ry="25.0" stroke="#000000" stroke-width="1"/>
<ellipse cx="1005" cy="279" fill="#ffffff" rx="70.0" ry="24.0" stroke="#ffffff" stroke-width="1"/>
<text font-family="Dialog" font-size="12" x="948" y="280">
Apasare buton "Map"</text>
<ellipse cx="928" cy="476" fill="#000000" rx="98.0" ry="30.0" stroke="#000000" stroke-width="1"/>
<ellipse cx="928" cy="476" fill="#ffffff" rx="97.0" ry="29.0" stroke="#ffffff" stroke-width="1"/>
<text font-family="Dialog" font-size="12" x="843" y="477">
Apasare buton "Person Finder"</text>
<polyline fill="none" points="767,276 934,278" stroke="#000000" stroke-width="1"/>
<polyline fill="none" points="762,325 896,447" stroke="#000000" stroke-width="1"/>
<ellipse cx="386" cy="333" fill="#000000" rx="100.0" ry="31.0" stroke="#000000" stroke-width="1"/>
<ellipse cx="386" cy="333" fill="#ffffff" rx="99.0" ry="30.0" stroke="#ffffff" stroke-width="1"/>
<text font-family="Dialog" font-size="12" x="299" y="334">
Apasare buton "Transmit Alerts"</text>
<ellipse cx="1373" cy="319" fill="#000000" rx="191.0" ry="49.0" stroke="#000000" stroke-width="1"/>
<ellipse cx="1373" cy="319" fill="#ffffff" rx="190.0" ry="48.0" stroke="#ffffff" stroke-width="1"/>
<text font-family="Dialog" font-size="12" x="1193" y="320">
Interactionare cu harta (punere la curent cu evenimentele curente)</text>
<ellipse cx="1593" cy="206" fill="#000000" rx="67.0" ry="24.0" stroke="#000000" stroke-width="1"/>
<ellipse cx="1593" cy="206" fill="#ffffff" rx="66.0" ry="23.0" stroke="#ffffff" stroke-width="1"/>
<text font-family="Dialog" font-size="12" x="1540" y="207">
Filtrare evenimente</text>
<polyline fill="none" points="1457,275 1554,225" stroke="#000000" stroke-width="1"/>
<polyline fill="none" points="1073,286 1197,299" stroke="#000000" stroke-width="1"/>
<ellipse cx="1541" cy="117" fill="#000000" rx="63.0" ry="23.0" stroke="#000000" stroke-width="1"/>
<ellipse cx="1541" cy="117" fill="#ffffff" rx="62.0" ry="22.0" stroke="#ffffff" stroke-width="1"/>
<text font-family="Dialog" font-size="12" x="1493" y="118">
Filtrare dupa data</text>
<ellipse cx="1773" cy="136" fill="#000000" rx="79.0" ry="26.0" stroke="#000000" stroke-width="1"/>
<ellipse cx="1773" cy="136" fill="#ffffff" rx="78.0" ry="25.0" stroke="#ffffff" stroke-width="1"/>
<text font-family="Dialog" font-size="12" x="1708" y="137">
Filtrare dupa eveniment</text>
<line fill="#000000" stroke="#000000" stroke-width="1" x1="1553" x2="1555" y1="139" y2="143"/>
<line fill="#000000" stroke="#000000" stroke-width="1" x1="1558" x2="1560" y1="147" y2="152"/>
<line fill="#000000" stroke="#000000" stroke-width="1" x1="1563" x2="1565" y1="156" y2="160"/>
<line fill="#000000" stroke="#000000" stroke-width="1" x1="1568" x2="1570" y1="165" y2="169"/>
<line fill="#000000" stroke="#000000" stroke-width="1" x1="1573" x2="1575" y1="174" y2="178"/>
<line fill="#000000" stroke="#000000" stroke-width="1" x1="1565" x2="1578" y1="175" y2="182"/>
<line fill="#000000" stroke="#000000" stroke-width="1" x1="1578" x2="1578" y1="168" y2="182"/>
<text font-family="Dialog" font-size="12" x="1567" y="137">
&lt;&lt;extend&gt;&gt;</text>
<line fill="#000000" stroke="#000000" stroke-width="1" x1="1721" x2="1717" y1="155" y2="156"/>
<line fill="#000000" stroke="#000000" stroke-width="1" x1="1712" x2="1707" y1="158" y2="160"/>
<line fill="#000000" stroke="#000000" stroke-width="1" x1="1703" x2="1698" y1="162" y2="164"/>
<line fill="#000000" stroke="#000000" stroke-width="1" x1="1693" x2="1689" y1="166" y2="167"/>
<line fill="#000000" stroke="#000000" stroke-width="1" x1="1684" x2="1679" y1="169" y2="171"/>
<line fill="#000000" stroke="#000000" stroke-width="1" x1="1675" x2="1670" y1="173" y2="175"/>
<line fill="#000000" stroke="#000000" stroke-width="1" x1="1665" x2="1661" y1="177" y2="178"/>
<line fill="#000000" stroke="#000000" stroke-width="1" x1="1656" x2="1651" y1="180" y2="182"/>
<line fill="#000000" stroke="#000000" stroke-width="1" x1="1647" x2="1642" y1="184" y2="186"/>
<line fill="#000000" stroke="#000000" stroke-width="1" x1="1645" x2="1637" y1="177" y2="188"/>
<line fill="#000000" stroke="#000000" stroke-width="1" x1="1650" x2="1637" y1="190" y2="188"/>
<text font-family="Dialog" font-size="12" x="1637" y="139">
&lt;&lt;extend&gt;&gt;</text>
<ellipse cx="308" cy="234" fill="#000000" rx="86.0" ry="28.0" stroke="#000000" stroke-width="1"/>
<ellipse cx="308" cy="234" fill="#ffffff" rx="85.0" ry="27.0" stroke="#ffffff" stroke-width="1"/>
<text font-family="Dialog" font-size="12" x="235" y="235">
Selectare tip de eveniment</text>
<ellipse cx="151" cy="140" fill="#000000" rx="137.0" ry="38.0" stroke="#000000" stroke-width="1"/>
<ellipse cx="151" cy="140" fill="#ffffff" rx="136.0" ry="37.0" stroke="#ffffff" stroke-width="1"/>
<text font-family="Dialog" font-size="12" x="26" y="141">
Selectare eveniment concret din fushion table</text>
<ellipse cx="395" cy="146" fill="#000000" rx="85.0" ry="28.0" stroke="#000000" stroke-width="1"/>
<ellipse cx="395" cy="146" fill="#ffffff" rx="84.0" ry="27.0" stroke="#ffffff" stroke-width="1"/>
<text font-family="Dialog" font-size="12" x="324" y="147">
Selectare mod de alertare</text>
<ellipse cx="186" cy="57" fill="#000000" rx="84.0" ry="27.0" stroke="#000000" stroke-width="1"/>
<ellipse cx="186" cy="57" fill="#ffffff" rx="83.0" ry="26.0" stroke="#ffffff" stroke-width="1"/>
<text font-family="Dialog" font-size="12" x="116" y="58">
Selectare raza de alertare</text>
<ellipse cx="424" cy="45" fill="#000000" rx="66.0" ry="23.0" stroke="#000000" stroke-width="1"/>
<ellipse cx="424" cy="45" fill="#ffffff" rx="65.0" ry="22.0" stroke="#ffffff" stroke-width="1"/>
<text font-family="Dialog" font-size="12" x="373" y="46">
Transmitere alerta</text>
<polyline fill="none" points="165,102 173,83" stroke="#000000" stroke-width="1"/>
<polyline fill="none" points="362,302 329,261" stroke="#000000" stroke-width="1"/>
<polyline fill="none" points="266,209 208,174" stroke="#000000" stroke-width="1"/>
<polyline fill="none" points="287,140 311,140" stroke="#000000" stroke-width="1"/>
<line fill="#000000" stroke="#000000" stroke-width="1" x1="358" x2="353" y1="50" y2="50"/>
<line fill="#000000" stroke="#000000" stroke-width="1" x1="348" x2="343" y1="50" y2="50"/>
<line fill="#000000" stroke="#000000" stroke-width="1" x1="338" x2="333" y1="50" y2="50"/>
<line fill="#000000" stroke="#000000" stroke-width="1" x1="328" x2="323" y1="50" y2="50"/>
<line fill="#000000" stroke="#000000" stroke-width="1" x1="318" x2="313" y1="50" y2="50"/>
<line fill="#000000" stroke="#000000" stroke-width="1" x1="308" x2="303" y1="50" y2="50"/>
<line fill="#000000" stroke="#000000" stroke-width="1" x1="298" x2="293" y1="50" y2="50"/>
<line fill="#000000" stroke="#000000" stroke-width="1" x1="288" x2="283" y1="50" y2="50"/>
<line fill="#000000" stroke="#000000" stroke-width="1" x1="278" x2="273" y1="50" y2="50"/>
<line fill="#000000" stroke="#000000" stroke-width="1" x1="280" x2="268" y1="43" y2="50"/>
<line fill="#000000" stroke="#000000" stroke-width="1" x1="280" x2="268" y1="57" y2="50"/>
<text font-family="Dialog" font-size="12" x="279" y="45">
&lt;&lt;include&gt;&gt;</text>
<line fill="#000000" stroke="#000000" stroke-width="1" x1="417" x2="416" y1="67" y2="71"/>
<line fill="#000000" stroke="#000000" stroke-width="1" x1="415" x2="413" y1="76" y2="81"/>
<line fill="#000000" stroke="#000000" stroke-width="1" x1="412" x2="410" y1="86" y2="91"/>
<line fill="#000000" stroke="#000000" stroke-width="1" x1="409" x2="408" y1="95" y2="100"/>
<line fill="#000000" stroke="#000000" stroke-width="1" x1="406" x2="405" y1="105" y2="110"/>
<line fill="#000000" stroke="#000000" stroke-width="1" x1="403" x2="402" y1="115" y2="118"/>
<line fill="#000000" stroke="#000000" stroke-width="1" x1="398" x2="402" y1="104" y2="118"/>
<line fill="#000000" stroke="#000000" stroke-width="1" x1="412" x2="402" y1="108" y2="118"/>
<text font-family="Dialog" font-size="12" x="340" y="86">
&lt;&lt;include&gt;&gt;</text>
<polyline fill="none" points="411,362 490,456" stroke="#000000" stroke-width="1"/>
<ellipse cx="1056" cy="385" fill="#000000" rx="122.0" ry="35.0" stroke="#000000" stroke-width="1"/>
<ellipse cx="1056" cy="385" fill="#ffffff" rx="121.0" ry="34.0" stroke="#ffffff" stroke-width="1"/>
<text font-family="Dialog" font-size="12" x="946" y="386">
Familiarizare cu functionarea sistemului</text>
<polyline fill="none" points="965,448 1009,417" stroke="#000000" stroke-width="1"/>
<ellipse cx="985" cy="432" fill="#000000" rx="0.5" ry="0.5" stroke="#000000" stroke-width="1"/>
<ellipse cx="986" cy="433" fill="#ffffff" rx="-0.5" ry="-0.5" stroke="#ffffff" stroke-width="1"/>
<ellipse cx="1333" cy="535" fill="#000000" rx="111.0" ry="33.0" stroke="#000000" stroke-width="1"/>
<ellipse cx="1333" cy="535" fill="#ffffff" rx="110.0" ry="32.0" stroke="#ffffff" stroke-width="1"/>
<text font-family="Dialog" font-size="12" x="1235" y="536">
Selectare "I'm looking for someone"</text>
<ellipse cx="1127" cy="636" fill="#000000" rx="137.0" ry="38.0" stroke="#000000" stroke-width="1"/>
<ellipse cx="1127" cy="636" fill="#ffffff" rx="136.0" ry="37.0" stroke="#ffffff" stroke-width="1"/>
<text font-family="Dialog" font-size="12" x="1002" y="637">
Selectare "I have information about someone"</text>
<polyline fill="none" points="1016,488 1233,520" stroke="#000000" stroke-width="1"/>
<polyline fill="none" points="962,504 1082,600" stroke="#000000" stroke-width="1"/>
<ellipse cx="1439" cy="745" fill="#000000" rx="161.0" ry="43.0" stroke="#000000" stroke-width="1"/>
<ellipse cx="1439" cy="745" fill="#ffffff" rx="160.0" ry="42.0" stroke="#ffffff" stroke-width="1"/>
<text font-family="Dialog" font-size="12" x="1290" y="746">
Complatare formular cu date despre persoana cautata</text>
<polyline fill="none" points="1212,665 1341,710" stroke="#000000" stroke-width="1"/>
<ellipse cx="1133" cy="787" fill="#000000" rx="55.0" ry="21.0" stroke="#000000" stroke-width="1"/>
<ellipse cx="1133" cy="787" fill="#ffffff" rx="54.0" ry="20.0" stroke="#ffffff" stroke-width="1"/>
<text font-family="Dialog" font-size="12" x="1100" y="788">
Submit date</text>
<polyline fill="none" points="1274,563 1193,602" stroke="#000000" stroke-width="1"/>
<ellipse cx="1671" cy="530" fill="#000000" rx="89.0" ry="28.0" stroke="#000000" stroke-width="1"/>
<ellipse cx="1671" cy="530" fill="#ffffff" rx="88.0" ry="27.0" stroke="#ffffff" stroke-width="1"/>
<text font-family="Dialog" font-size="12" x="1596" y="531">
Introducere date de cautare</text>
<polyline fill="none" points="1443,531 1582,531" stroke="#000000" stroke-width="1"/>
<ellipse cx="1579" cy="639" fill="#000000" rx="149.0" ry="41.0" stroke="#000000" stroke-width="1"/>
<ellipse cx="1579" cy="639" fill="#ffffff" rx="148.0" ry="40.0" stroke="#ffffff" stroke-width="1"/>
<text font-family="Dialog" font-size="12" x="1441" y="640">
Vizionare informatii in tabelul persoanelor pierdute</text>
<polyline fill="none" points="1647,557 1612,599" stroke="#000000" stroke-width="1"/>
<line fill="#000000" stroke="#000000" stroke-width="1" x1="342" x2="338" y1="360" y2="362"/>
<line fill="#000000" stroke="#000000" stroke-width="1" x1="334" x2="330" y1="365" y2="368"/>
<line fill="#000000" stroke="#000000" stroke-width="1" x1="326" x2="321" y1="370" y2="373"/>
<line fill="#000000" stroke="#000000" stroke-width="1" x1="317" x2="313" y1="376" y2="378"/>
<line fill="#000000" stroke="#000000" stroke-width="1" x1="309" x2="305" y1="381" y2="384"/>
<line fill="#000000" stroke="#000000" stroke-width="1" x1="300" x2="296" y1="386" y2="389"/>
<line fill="#000000" stroke="#000000" stroke-width="1" x1="292" x2="288" y1="392" y2="395"/>
<line fill="#000000" stroke="#000000" stroke-width="1" x1="284" x2="279" y1="397" y2="400"/>
<line fill="#000000" stroke="#000000" stroke-width="1" x1="275" x2="271" y1="403" y2="405"/>
<line fill="#000000" stroke="#000000" stroke-width="1" x1="267" x2="262" y1="408" y2="411"/>
<line fill="#000000" stroke="#000000" stroke-width="1" x1="258" x2="254" y1="413" y2="416"/>
<line fill="#000000" stroke="#000000" stroke-width="1" x1="250" x2="246" y1="419" y2="422"/>
<line fill="#000000" stroke="#000000" stroke-width="1" x1="241" x2="237" y1="424" y2="427"/>
<line fill="#000000" stroke="#000000" stroke-width="1" x1="233" x2="229" y1="430" y2="432"/>
<line fill="#000000" stroke="#000000" stroke-width="1" x1="225" x2="220" y1="435" y2="438"/>
<line fill="#000000" stroke="#000000" stroke-width="1" x1="216" x2="212" y1="440" y2="443"/>
<line fill="#000000" stroke="#000000" stroke-width="1" x1="208" x2="203" y1="446" y2="448"/>
<line fill="#000000" stroke="#000000" stroke-width="1" x1="199" x2="195" y1="451" y2="454"/>
<line fill="#000000" stroke="#000000" stroke-width="1" x1="198" x2="192" y1="443" y2="456"/>
<line fill="#000000" stroke="#000000" stroke-width="1" x1="205" x2="192" y1="455" y2="456"/>
<text font-family="Dialog" font-size="12" x="218" y="390">
&lt;&lt;include&gt;&gt;</text>
<polyline fill="none" points="170,848 278,885" stroke="#000000" stroke-width="1"/>
<line fill="#000000" stroke="#000000" stroke-width="1" x1="236" x2="232" y1="1009" y2="1007"/>
<line fill="#000000" stroke="#000000" stroke-width="1" x1="228" x2="223" y1="1005" y2="1002"/>
<line fill="#000000" stroke="#000000" stroke-width="1" x1="219" x2="215" y1="1000" y2="997"/>
<line fill="#000000" stroke="#000000" stroke-width="1" x1="210" x2="206" y1="995" y2="993"/>
<line fill="#000000" stroke="#000000" stroke-width="1" x1="201" x2="197" y1="990" y2="988"/>
<line fill="#000000" stroke="#000000" stroke-width="1" x1="193" x2="188" y1="985" y2="983"/>
<line fill="#000000" stroke="#000000" stroke-width="1" x1="184" x2="180" y1="980" y2="978"/>
<line fill="#000000" stroke="#000000" stroke-width="1" x1="175" x2="171" y1="976" y2="973"/>
<line fill="#000000" stroke="#000000" stroke-width="1" x1="166" x2="162" y1="971" y2="968"/>
<line fill="#000000" stroke="#000000" stroke-width="1" x1="158" x2="153" y1="966" y2="963"/>
<line fill="#000000" stroke="#000000" stroke-width="1" x1="164" x2="151" y1="961" y2="962"/>
<line fill="#000000" stroke="#000000" stroke-width="1" x1="158" x2="151" y1="973" y2="962"/>
<text font-family="Dialog" font-size="12" x="172" y="969">
&lt;&lt;include&gt;&gt;</text>
<line fill="#000000" stroke="#000000" stroke-width="1" x1="289" x2="290" y1="1006" y2="1002"/>
<line fill="#000000" stroke="#000000" stroke-width="1" x1="292" x2="293" y1="997" y2="992"/>
<line fill="#000000" stroke="#000000" stroke-width="1" x1="295" x2="296" y1="987" y2="982"/>
<line fill="#000000" stroke="#000000" stroke-width="1" x1="298" x2="299" y1="978" y2="973"/>
<line fill="#000000" stroke="#000000" stroke-width="1" x1="301" x2="302" y1="968" y2="963"/>
<line fill="#000000" stroke="#000000" stroke-width="1" x1="304" x2="305" y1="958" y2="953"/>
<line fill="#000000" stroke="#000000" stroke-width="1" x1="307" x2="308" y1="949" y2="944"/>
<line fill="#000000" stroke="#000000" stroke-width="1" x1="310" x2="311" y1="939" y2="934"/>
<line fill="#000000" stroke="#000000" stroke-width="1" x1="313" x2="314" y1="929" y2="924"/>
<line fill="#000000" stroke="#000000" stroke-width="1" x1="318" x2="315" y1="936" y2="923"/>
<line fill="#000000" stroke="#000000" stroke-width="1" x1="304" x2="315" y1="932" y2="923"/>
<text font-family="Dialog" font-size="12" x="233" y="958">
&lt;&lt;include&gt;&gt;</text>
<line fill="#000000" stroke="#000000" stroke-width="1" x1="670" x2="669" y1="83" y2="87"/>
<line fill="#000000" stroke="#000000" stroke-width="1" x1="668" x2="666" y1="92" y2="97"/>
<line fill="#000000" stroke="#000000" stroke-width="1" x1="665" x2="664" y1="102" y2="107"/>
<line fill="#000000" stroke="#000000" stroke-width="1" x1="662" x2="661" y1="112" y2="117"/>
<line fill="#000000" stroke="#000000" stroke-width="1" x1="660" x2="658" y1="122" y2="126"/>
<line fill="#000000" stroke="#000000" stroke-width="1" x1="654" x2="658" y1="112" y2="126"/>
<line fill="#000000" stroke="#000000" stroke-width="1" x1="667" x2="658" y1="116" y2="126"/>
<text font-family="Dialog" font-size="12" x="596" y="90">
&lt;&lt;extend&gt;&gt;</text>
<ellipse cx="1196" cy="149" fill="#000000" rx="62.0" ry="23.0" stroke="#000000" stroke-width="1"/>
<ellipse cx="1196" cy="149" fill="#ffffff" rx="61.0" ry="22.0" stroke="#ffffff" stroke-width="1"/>
<text font-family="Dialog" font-size="12" x="1149" y="150">
Contactare sediu</text>
<polyline fill="none" points="1084,155 1134,152" stroke="#000000" stroke-width="1"/>
<line fill="#000000" stroke="#000000" stroke-width="1" x1="1291" x2="1287" y1="95" y2="97"/>
<line fill="#000000" stroke="#000000" stroke-width="1" x1="1283" x2="1278" y1="99" y2="102"/>
<line fill="#000000" stroke="#000000" stroke-width="1" x1="1274" x2="1269" y1="104" y2="107"/>
<line fill="#000000" stroke="#000000" stroke-width="1" x1="1265" x2="1260" y1="109" y2="112"/>
<line fill="#000000" stroke="#000000" stroke-width="1" x1="1256" x2="1252" y1="114" y2="116"/>
<line fill="#000000" stroke="#000000" stroke-width="1" x1="1247" x2="1243" y1="119" y2="121"/>
<line fill="#000000" stroke="#000000" stroke-width="1" x1="1238" x2="1234" y1="124" y2="126"/>
<line fill="#000000" stroke="#000000" stroke-width="1" x1="1236" x2="1229" y1="117" y2="129"/>
<line fill="#000000" stroke="#000000" stroke-width="1" x1="1242" x2="1229" y1="129" y2="129"/>
<text font-family="Dialog" font-size="12" x="1213" y="80">
&lt;&lt;extend&gt;&gt;</text>
<polyline fill="none" points="1322,204 1251,223" stroke="#000000" stroke-width="1"/>
<line fill="#000000" stroke="#000000" stroke-width="1" x1="1193" x2="1193" y1="214" y2="209"/>
<line fill="#000000" stroke="#000000" stroke-width="1" x1="1193" x2="1193" y1="204" y2="199"/>
<line fill="#000000" stroke="#000000" stroke-width="1" x1="1193" x2="1193" y1="194" y2="189"/>
<line fill="#000000" stroke="#000000" stroke-width="1" x1="1193" x2="1193" y1="184" y2="179"/>
<line fill="#000000" stroke="#000000" stroke-width="1" x1="1193" x2="1193" y1="174" y2="171"/>
<line fill="#000000" stroke="#000000" stroke-width="1" x1="1200" x2="1193" y1="183" y2="171"/>
<line fill="#000000" stroke="#000000" stroke-width="1" x1="1186" x2="1193" y1="183" y2="171"/>
<text font-family="Dialog" font-size="12" x="1127" y="189">
&lt;&lt;extend&gt;&gt;</text>
<line fill="#000000" stroke="#000000" stroke-width="1" x1="1184" x2="1188" y1="779" y2="779"/>
<line fill="#000000" stroke="#000000" stroke-width="1" x1="1193" x2="1198" y1="778" y2="777"/>
<line fill="#000000" stroke="#000000" stroke-width="1" x1="1203" x2="1208" y1="777" y2="776"/>
<line fill="#000000" stroke="#000000" stroke-width="1" x1="1213" x2="1218" y1="775" y2="775"/>
<line fill="#000000" stroke="#000000" stroke-width="1" x1="1223" x2="1228" y1="774" y2="773"/>
<line fill="#000000" stroke="#000000" stroke-width="1" x1="1233" x2="1238" y1="773" y2="772"/>
<line fill="#000000" stroke="#000000" stroke-width="1" x1="1243" x2="1248" y1="771" y2="771"/>
<line fill="#000000" stroke="#000000" stroke-width="1" x1="1253" x2="1258" y1="770" y2="769"/>
<line fill="#000000" stroke="#000000" stroke-width="1" x1="1263" x2="1268" y1="769" y2="768"/>
<line fill="#000000" stroke="#000000" stroke-width="1" x1="1273" x2="1278" y1="767" y2="767"/>
<line fill="#000000" stroke="#000000" stroke-width="1" x1="1283" x2="1288" y1="766" y2="765"/>
<line fill="#000000" stroke="#000000" stroke-width="1" x1="1293" x2="1294" y1="765" y2="764"/>
<line fill="#000000" stroke="#000000" stroke-width="1" x1="1283" x2="1294" y1="772" y2="764"/>
<line fill="#000000" stroke="#000000" stroke-width="1" x1="1281" x2="1294" y1="758" y2="764"/>
<text font-family="Dialog" font-size="12" x="1202" y="762">
&lt;&lt;include&gt;&gt;</text>
<ellipse cx="77" cy="363" fill="#000000" rx="55.0" ry="21.0" stroke="#000000" stroke-width="1"/>
<ellipse cx="77" cy="363" fill="#ffffff" rx="54.0" ry="20.0" stroke="#ffffff" stroke-width="1"/>
<text font-family="Dialog" font-size="12" x="58" y="364">
Logout</text>
<line fill="#000000" stroke="#000000" stroke-width="1" x1="92" x2="95" y1="383" y2="386"/>
<line fill="#000000" stroke="#000000" stroke-width="1" x1="98" x2="101" y1="390" y2="394"/>
<line fill="#000000" stroke="#000000" stroke-width="1" x1="104" x2="107" y1="398" y2="402"/>
<line fill="#000000" stroke="#000000" stroke-width="1" x1="110" x2="113" y1="406" y2="410"/>
<line fill="#000000" stroke="#000000" stroke-width="1" x1="117" x2="120" y1="414" y2="418"/>
<line fill="#000000" stroke="#000000" stroke-width="1" x1="123" x2="126" y1="422" y2="425"/>
<line fill="#000000" stroke="#000000" stroke-width="1" x1="129" x2="132" y1="429" y2="433"/>
<line fill="#000000" stroke="#000000" stroke-width="1" x1="135" x2="138" y1="437" y2="441"/>
<line fill="#000000" stroke="#000000" stroke-width="1" x1="142" x2="145" y1="445" y2="449"/>
<line fill="#000000" stroke="#000000" stroke-width="1" x1="148" x2="149" y1="453" y2="454"/>
<line fill="#000000" stroke="#000000" stroke-width="1" x1="136" x2="149" y1="449" y2="454"/>
<line fill="#000000" stroke="#000000" stroke-width="1" x1="146" x2="149" y1="440" y2="454"/>
<text font-family="Dialog" font-size="12" x="109" y="397">
&lt;&lt;include&gt;&gt;</text>
<ellipse cx="1531" cy="431" fill="#000000" rx="149.0" ry="41.0" stroke="#000000" stroke-width="1"/>
<ellipse cx="1531" cy="431" fill="#ffffff" rx="148.0" ry="40.0" stroke="#ffffff" stroke-width="1"/>
<text font-family="Dialog" font-size="12" x="1394" y="432">
Interactionare cu harta (vizualizare rute de salvare)</text>
<polyline fill="none" points="1023,468 1386,441" stroke="#000000" stroke-width="1"/>
</svg>
